<svg width="116" height="16" viewBox="0 0 116 16" fill="none" xmlns="http://www.w3.org/2000/svg">
<g id="Group 43437">
<g id="Group 43412">
<path id="Star 1" d="M32.541 3.51554C32.8127 3.07848 33.4488 3.07848 33.7206 3.51554L35.2446 5.96664C35.3402 6.12042 35.492 6.23077 35.6678 6.27418L38.4699 6.96614C38.9696 7.08952 39.1661 7.69449 38.8344 8.08799L36.9742 10.2948C36.8575 10.4333 36.7995 10.6118 36.8125 10.7924L37.0203 13.6712C37.0574 14.1845 36.5428 14.5584 36.066 14.3645L33.3924 13.2773C33.2246 13.2091 33.0369 13.2091 32.8692 13.2773L30.1955 14.3645C29.7188 14.5584 29.2041 14.1845 29.2412 13.6712L29.449 10.7924C29.462 10.6118 29.404 10.4333 29.2873 10.2948L27.4271 8.08799C27.0954 7.69449 27.292 7.08952 27.7916 6.96614L30.5937 6.27418C30.7695 6.23077 30.9214 6.12042 31.017 5.96664L32.541 3.51554Z" fill="#FF9D28"/>
<path id="Star 3" d="M57.968 3.51554C58.2398 3.07848 58.8759 3.07848 59.1476 3.51554L60.6716 5.96664C60.7672 6.12042 60.9191 6.23077 61.0949 6.27418L63.897 6.96614C64.3966 7.08952 64.5932 7.69449 64.2615 8.08799L62.4013 10.2948C62.2846 10.4333 62.2266 10.6118 62.2396 10.7924L62.4474 13.6712C62.4845 14.1845 61.9698 14.5584 61.4931 14.3645L58.8194 13.2773C58.6517 13.2091 58.464 13.2091 58.2962 13.2773L55.6226 14.3645C55.1458 14.5584 54.6312 14.1845 54.6683 13.6712L54.8761 10.7924C54.8891 10.6118 54.8311 10.4333 54.7144 10.2948L52.8542 8.08799C52.5225 7.69449 52.719 7.08952 53.2187 6.96614L56.0208 6.27418C56.1966 6.23077 56.3484 6.12042 56.4441 5.96664L57.968 3.51554Z" fill="#FF9D28"/>
<path id="Star 2" d="M45.2549 3.51554C45.5267 3.07848 46.1627 3.07848 46.4345 3.51554L47.9585 5.96664C48.0541 6.12042 48.206 6.23077 48.3818 6.27418L51.1839 6.96614C51.6835 7.08952 51.8801 7.69449 51.5484 8.08799L49.6882 10.2948C49.5715 10.4333 49.5134 10.6118 49.5265 10.7924L49.7343 13.6712C49.7713 14.1845 49.2567 14.5584 48.78 14.3645L46.1063 13.2773C45.9386 13.2091 45.7508 13.2091 45.5831 13.2773L42.9094 14.3645C42.4327 14.5584 41.9181 14.1845 41.9551 13.6712L42.1629 10.7924C42.176 10.6118 42.1179 10.4333 42.0012 10.2948L40.141 8.08799C39.8093 7.69449 40.0059 7.08952 40.5055 6.96614L43.3076 6.27418C43.4834 6.23077 43.6353 6.12042 43.7309 5.96664L45.2549 3.51554Z" fill="#FF9D28"/>
<path id="Star 4" d="M70.682 3.51554C70.9537 3.07848 71.5898 3.07848 71.8616 3.51554L73.3855 5.96664C73.4812 6.12042 73.633 6.23077 73.8088 6.27418L76.6109 6.96614C77.1106 7.08952 77.3071 7.69449 76.9754 8.08799L75.1152 10.2948C74.9985 10.4333 74.9405 10.6118 74.9535 10.7924L75.1613 13.6712C75.1984 14.1845 74.6838 14.5584 74.207 14.3645L71.5334 13.2773C71.3656 13.2091 71.1779 13.2091 71.0102 13.2773L68.3365 14.3645C67.8598 14.5584 67.3451 14.1845 67.3822 13.6712L67.59 10.7924C67.603 10.6118 67.545 10.4333 67.4283 10.2948L65.5681 8.08799C65.2364 7.69449 65.433 7.08952 65.9326 6.96614L68.7347 6.27418C68.9105 6.23077 69.0624 6.12042 69.158 5.96664L70.682 3.51554Z" fill="#FF9D28"/>
<path id="Star 6 (Stroke)" fill-rule="evenodd" clip-rule="evenodd" d="M85.5772 6.29086L84.0532 3.83976C84.0217 3.78912 83.948 3.78912 83.9166 3.83976L82.3926 6.29086C82.2124 6.5806 81.9263 6.78852 81.595 6.87031L78.793 7.56227C78.7351 7.57656 78.7123 7.64665 78.7507 7.69224L80.6109 9.89906C80.8308 10.1599 80.9401 10.4963 80.9156 10.8366L80.7078 13.7154C80.7035 13.7749 80.7631 13.8182 80.8183 13.7957L83.492 12.7085C83.808 12.58 84.1618 12.58 84.4778 12.7085L87.1515 13.7957C87.2067 13.8182 87.2663 13.7749 87.262 13.7154L87.0542 10.8366C87.0297 10.4963 87.139 10.1599 87.3589 9.89906L89.2191 7.69224C89.2575 7.64665 89.2347 7.57656 89.1768 7.56227L86.3748 6.87031C86.0435 6.78852 85.7574 6.5806 85.5772 6.29086ZM84.5747 3.51554C84.3029 3.07848 83.6668 3.07848 83.3951 3.51554L81.8711 5.96664C81.7755 6.12042 81.6236 6.23077 81.4478 6.27418L78.6457 6.96614C78.1461 7.08952 77.9495 7.69449 78.2812 8.08799L80.1414 10.2948C80.2581 10.4333 80.3162 10.6118 80.3031 10.7924L80.0953 13.6712C80.0583 14.1845 80.5729 14.5584 81.0496 14.3645L83.7233 13.2773C83.891 13.2091 84.0788 13.2091 84.2465 13.2773L86.9202 14.3645C87.3969 14.5584 87.9115 14.1845 87.8745 13.6712L87.6667 10.7924C87.6536 10.6118 87.7117 10.4333 87.8284 10.2948L89.6886 8.08799C90.0203 7.69449 89.8237 7.08952 89.3241 6.96614L86.522 6.27418C86.3462 6.23077 86.1943 6.12042 86.0987 5.96664L84.5747 3.51554Z" fill="#FF9D28"/>
<path id="Subtract" fill-rule="evenodd" clip-rule="evenodd" d="M85.7727 5.44255L84.5748 3.51578C84.303 3.07872 83.6669 3.07872 83.3952 3.51578L81.8712 5.96689C81.7756 6.12066 81.6237 6.23102 81.4479 6.27443L78.6458 6.96638C78.1462 7.08977 77.9496 7.69474 78.2813 8.08824L80.1415 10.2951C80.2582 10.4335 80.3162 10.6121 80.3032 10.7927L80.0954 13.6714C80.0583 14.1847 80.5729 14.5586 81.0497 14.3648L83.7234 13.2776C83.8911 13.2093 84.0788 13.2093 84.2466 13.2776L85.7727 13.8981V5.44255Z" fill="#FF9D28"/>
</g>
<g id="Group">
<path id="Vector" d="M9.31656 0.310156C8.83486 1.30021 8.36093 2.29026 7.8637 3.27264C7.82485 3.34939 7.65392 3.39544 7.53738 3.40311C5.6339 3.54126 3.98681 4.88435 3.49734 6.71096C3.02341 8.4992 3.70711 10.3719 5.24544 11.4463C6.78376 12.5208 8.73386 12.5438 10.3033 11.5077C10.4431 11.4156 10.5752 11.3235 10.7383 11.2084C11.2977 12.1678 11.8416 13.1041 12.3854 14.0327C10.4742 15.7059 6.45745 16.3275 3.38857 14.2093C0.109922 11.9375 -0.954474 7.65497 0.9257 4.19362C2.93018 0.525051 6.94692 -0.342204 9.31656 0.310156Z" fill="#FF492C"/>
<path id="Vector_2" d="M13.1177 12.8674C12.5272 11.8543 11.9678 10.9103 11.4318 9.95098C11.2764 9.66701 11.0899 9.55188 10.7636 9.55956C9.79243 9.57491 8.82127 9.56723 7.85011 9.56723C7.71026 9.56723 7.57041 9.56723 7.36841 9.56723C7.45387 9.39839 7.50826 9.27559 7.57818 9.15279C8.08318 8.28554 8.58819 7.43363 9.08543 6.5587C9.20974 6.34381 9.33404 6.25171 9.5982 6.25171C10.6626 6.26706 11.7192 6.26706 12.7836 6.25171C13.0167 6.25171 13.1565 6.30543 13.2809 6.52033C13.8092 7.45666 14.3608 8.38531 14.9124 9.30629C15.0212 9.49049 15.0367 9.62863 14.9202 9.82818C14.3142 10.8106 13.7315 11.8083 13.1177 12.8674Z" fill="#FF492C"/>
<path id="Vector_3" d="M11.2978 4.64646C12.0592 4.64646 12.8051 4.64646 13.6053 4.64646C13.6053 4.9074 13.5975 5.11462 13.6053 5.32952C13.6131 5.55209 13.5198 5.62116 13.3023 5.62116C12.3311 5.61349 11.36 5.61349 10.3888 5.62116C10.1169 5.62116 10.0625 5.50604 10.0703 5.2758C10.1014 4.37784 10.4587 3.67176 11.2512 3.20359C11.5542 3.02707 11.8572 2.8659 12.1602 2.69705C12.4477 2.53588 12.6419 2.31331 12.5254 1.98329C12.4088 1.63025 12.0825 1.57653 11.7562 1.60723C11.2823 1.65328 10.9637 1.9526 10.7074 2.38239C10.482 2.13679 10.2878 1.9219 10.0858 1.707C10.6452 0.548102 12.4088 0.287158 13.279 1.23116C13.7918 1.79142 13.7063 2.75845 13.0615 3.24197C12.6808 3.52593 12.2379 3.71781 11.8339 3.9634C11.5931 4.10922 11.3367 4.26272 11.2978 4.64646Z" fill="#FF492C"/>
</g>
<g id="4.8">
<path id="Vector_4" d="M112.137 14.9317C110.906 14.9317 109.949 14.6925 109.267 14.2141C108.595 13.7255 108.259 12.9774 108.259 11.9698C108.259 11.5626 108.31 11.2115 108.412 10.9163C108.514 10.6109 108.646 10.3565 108.809 10.1529C108.982 9.93915 109.17 9.76611 109.374 9.63379C109.577 9.50147 109.786 9.3946 110 9.31317V9.2521C109.796 9.15032 109.608 9.03326 109.435 8.90094C109.262 8.75844 109.109 8.59559 108.977 8.41237C108.855 8.21898 108.758 7.99506 108.687 7.74059C108.615 7.48613 108.58 7.19096 108.58 6.85507C108.58 5.939 108.88 5.23669 109.481 4.74812C110.081 4.24937 110.967 4 112.137 4C113.308 4 114.188 4.24937 114.779 4.74812C115.379 5.23669 115.679 5.939 115.679 6.85507C115.679 7.51667 115.547 8.03068 115.282 8.39711C115.018 8.75335 114.641 9.03835 114.153 9.2521V9.31317C114.397 9.3946 114.631 9.50656 114.855 9.64906C115.079 9.78138 115.272 9.95442 115.435 10.1682C115.608 10.3717 115.746 10.6262 115.847 10.9316C115.949 11.2267 116 11.5779 116 11.985C116 12.9825 115.664 13.7255 114.992 14.2141C114.321 14.6925 113.369 14.9317 112.137 14.9317ZM112.137 8.48871C112.707 8.48871 113.114 8.35639 113.359 8.09175C113.603 7.82711 113.725 7.48104 113.725 7.05355C113.725 6.60569 113.588 6.2698 113.313 6.04588C113.048 5.81177 112.656 5.69472 112.137 5.69472C111.618 5.69472 111.221 5.80668 110.946 6.03061C110.672 6.24436 110.534 6.58534 110.534 7.05355C110.534 7.48104 110.656 7.82711 110.901 8.09175C111.145 8.35639 111.557 8.48871 112.137 8.48871ZM112.137 13.1759C113.348 13.1759 113.954 12.7077 113.954 11.7713C113.954 11.2216 113.796 10.8145 113.481 10.5499C113.165 10.2852 112.717 10.1529 112.137 10.1529C111.557 10.1529 111.104 10.2852 110.778 10.5499C110.463 10.8145 110.305 11.2216 110.305 11.7713C110.305 12.2293 110.453 12.5805 110.748 12.8247C111.043 13.0589 111.506 13.1759 112.137 13.1759Z" fill="#424A52"/>
<path id="Vector_5" d="M105.128 14.8554C104.833 14.8554 104.593 14.8401 104.41 14.8095C104.237 14.779 104.105 14.7129 104.013 14.6111C103.922 14.5093 103.861 14.3719 103.83 14.1988C103.8 14.0258 103.784 13.7917 103.784 13.4965C103.784 13.2013 103.8 12.9672 103.83 12.7942C103.861 12.611 103.922 12.4736 104.013 12.382C104.105 12.2802 104.237 12.214 104.41 12.1835C104.593 12.153 104.833 12.1377 105.128 12.1377C105.413 12.1377 105.642 12.153 105.815 12.1835C105.998 12.214 106.136 12.2802 106.227 12.382C106.329 12.4736 106.395 12.611 106.426 12.7942C106.456 12.9672 106.471 13.2013 106.471 13.4965C106.471 13.7917 106.456 14.0258 106.426 14.1988C106.395 14.3719 106.329 14.5093 106.227 14.6111C106.136 14.7129 105.998 14.779 105.815 14.8095C105.642 14.8401 105.413 14.8554 105.128 14.8554Z" fill="#424A52"/>
<path id="Vector_6" d="M102 12.5042H100.84V14.7638H98.7178V12.5042H94V10.3361L98.2597 4.16797H100.84V10.6262H102V12.5042ZM98.7178 10.6262V6.45813H98.6262L95.878 10.5346V10.6262H98.7178Z" fill="#424A52"/>
</g>
</g>
</svg>